<svg width="24" height="24" viewBox="0 0 24 24" fill="none" xmlns="http://www.w3.org/2000/svg">
<g clip-path="url(#clip0_1254_254)">
<path d="M21 12C21 16.9706 16.9706 21 12 21C7.02944 21 3 16.9706 3 12C3 7.02944 7.02944 3 12 3C16.9706 3 21 7.02944 21 12Z" stroke="#28303F" stroke-width="1.5" stroke-linecap="round" stroke-linejoin="round"/>
<path d="M13 8H16M16 8V11M16 8L8 16M8 16V13M8 16H11" stroke="#28303F" stroke-width="1.5" stroke-linecap="round" stroke-linejoin="round"/>
<path opacity="0.4" d="M19.0328 -2.72859C19.8375 -4.4238 22.1625 -4.42381 22.9672 -2.72859L24.3579 0.201178C24.6774 0.874348 25.2951 1.34094 26.0096 1.44888L29.1193 1.91869C30.9187 2.19053 31.6371 4.48954 30.3351 5.80908L28.0849 8.08959C27.5679 8.61358 27.332 9.36854 27.454 10.1084L27.9852 13.3285C28.2926 15.1918 26.4116 16.6126 24.8022 15.7329L22.0208 14.2126C21.3817 13.8633 20.6183 13.8633 19.9792 14.2126L17.1978 15.7329C15.5884 16.6126 13.7074 15.1918 14.0148 13.3286L14.546 10.1084C14.668 9.36854 14.4321 8.61358 13.9151 8.08959L11.6649 5.80908C10.3629 4.48954 11.0813 2.19053 12.8807 1.91869L15.9904 1.44888C16.7049 1.34094 17.3226 0.874349 17.6421 0.201178L19.0328 -2.72859Z" fill="#28303F"/>
</g>
<defs>
<clipPath id="clip0_1254_254">
<rect width="24" height="24" fill="white"/>
</clipPath>
</defs>
</svg>
